<svg width="403" height="500" viewBox="0 0 403 500" fill="none" xmlns="http://www.w3.org/2000/svg">
<path d="M24.5171 19.0274C23.8998 19.9534 24.62 248.923 25.2373 256.897C25.8032 263.944 27.9123 280.354 28.8897 284.933C33.7767 308.185 40.3613 326.961 49.4152 343.32C65.4137 372.23 87.0195 396.357 118.451 420.329C138.873 435.916 161.92 450.011 189.544 463.746L200.758 469.302L212.436 463.489C218.866 460.3 226.891 456.081 230.286 454.178C233.682 452.275 237.385 450.217 238.517 449.548C258.528 438.334 281.986 422.078 297.676 408.6C344.077 368.681 369.283 322.743 374.839 268.06C376.743 248.975 376.794 247.02 377 131.995L377.206 18.4616H201.016C76.0109 18.4616 24.7229 18.6159 24.5171 19.0274ZM210.995 56.5289V81.7356H200.707H190.419L190.316 72.0645C190.213 61.2101 190.47 31.7337 190.676 31.3221C190.779 31.1678 195.357 31.1164 200.913 31.2193L210.995 31.3736V56.5289ZM183.319 61.5188L183.474 89.1947L201.119 89.3491L218.712 89.452V61.6731C218.712 41.0447 218.866 33.8943 219.329 33.8943C219.998 33.8943 227.817 38.3183 229.155 39.45C229.978 40.1702 230.029 41.7135 230.029 58.2265C230.029 76.0255 230.029 76.2827 231.161 77.4659C232.55 78.9063 234.71 79.0092 235.945 77.6202C236.819 76.6428 236.922 75.2024 237.128 61.4159C237.282 53.0822 237.54 46.2404 237.745 46.2404C238.466 46.2404 243.919 52.5678 246.285 56.1173C251.069 63.3193 254.361 72.6303 254.979 81.0669C255.133 83.2789 255.39 86.0568 255.544 87.2399L255.802 89.4005L261.049 89.5548L266.296 89.7092L266.45 93.413L266.605 97.1683H200.861H135.118V93.413V89.7092L140.674 89.5548L146.178 89.4005V85.388C146.178 74.8423 149.933 62.9077 155.849 54.7284C158.061 51.6933 163.103 46.2404 163.771 46.2404C163.977 46.2404 164.183 53.0308 164.183 61.313C164.183 75.7683 164.234 76.4371 165.212 77.5173C166.601 79.0092 169.327 79.0092 170.665 77.5688C171.591 76.5399 171.642 75.4596 171.642 58.2265V40.0159L172.877 39.0385C174.42 37.9068 182.085 33.8943 182.754 33.8943C183.011 33.8943 183.268 45.3659 183.319 61.5188ZM244.999 104.37C247.777 105.142 250.194 106.942 251.532 109.257C252.664 111.263 252.664 111.675 252.561 122.118C252.407 132.561 252.355 133.024 251.069 135.75C248.548 141.1 242.632 145.473 235.533 147.325C231.727 148.302 229.823 148.302 225.245 147.273C216.706 145.37 210.224 140.277 206.366 132.509C205.131 130.04 203.794 127.725 203.382 127.416C202.353 126.542 198.958 126.593 197.878 127.519C197.363 127.931 196.18 129.988 195.151 132.149C192.888 136.882 187.589 142.438 182.959 144.855C177.712 147.582 170.665 148.714 166.807 147.53C157.495 144.598 153.637 141.82 150.705 135.853L149.007 132.406V121.603V110.749L150.396 108.588C151.837 106.428 153.946 105.039 156.724 104.319C159.193 103.753 242.838 103.804 244.999 104.37ZM144.12 123.147V130.091H141.548H138.976V123.147V116.202H141.548H144.12V123.147ZM262.335 123.25L262.489 130.091H259.866H257.294V123.095V116.151L259.763 116.305L262.181 116.459L262.335 123.25ZM207.137 142.283C213.259 149.434 220.821 156.018 227.097 159.619L229.515 161.06V167.439C229.515 176.852 227.714 184.003 223.599 191.153C221.541 194.703 215.419 200.516 211.664 202.522C208.063 204.426 201.53 205.866 198.701 205.454C190.882 204.168 187.898 202.676 182.445 197.224C175.192 190.073 172.157 182.151 171.539 168.879L171.231 161.574L175.552 158.796C181.416 154.989 188.515 149.022 192.219 144.701C196.9 139.3 197.826 138.734 201.993 139.094C204.411 139.3 204.719 139.505 207.137 142.283ZM157.753 154.269C159.142 155.813 161.508 158.127 163 159.414L165.726 161.677V166.204C165.726 169.239 165.52 170.731 165.16 170.731C163.103 170.731 150.551 159.053 148.133 154.887L147.207 153.343L149.933 150.72L152.608 148.045L153.895 149.742C154.615 150.668 156.312 152.675 157.753 154.269ZM253.744 152.829C254.104 153.498 253.384 154.681 250.503 158.179C246.799 162.603 237.643 170.731 236.357 170.731C235.842 170.731 235.688 169.599 235.688 166.41V162.089L239.083 159.105C240.935 157.459 243.97 154.321 245.822 152.109L249.217 148.045L251.223 150C252.355 151.08 253.487 152.366 253.744 152.829ZM133.935 173.406C137.845 179.733 157.856 211.679 163.206 220.115C165.932 224.488 169.07 229.478 170.15 231.176C171.179 232.873 173.288 236.217 174.832 238.635C179.821 246.505 197.209 274.336 198.855 277.062C199.73 278.554 200.604 279.789 200.758 279.789C200.964 279.789 204.771 273.821 209.195 266.516C213.67 259.263 221.747 246.248 227.097 237.606C249.68 201.39 267.788 172.428 268.714 171.091L269.691 169.702H298.499H327.255V209.621C327.255 231.587 327.101 249.438 326.895 249.335C319.179 245.425 314.857 243.676 310.279 242.544C287.953 237.194 266.759 244.705 252.407 263.07C249.217 267.134 241.964 278.091 238.466 284.161C235.688 288.945 233.63 292.34 224.113 307.825C219.278 315.747 214.133 324.132 212.744 326.447L210.224 330.665H194.791H179.358L174.06 322.074C171.128 317.341 167.835 312.094 166.755 310.397C165.726 308.699 161.765 302.32 158.01 296.25C154.203 290.18 150.345 283.904 149.316 282.361C148.287 280.817 146.332 277.628 144.892 275.313C143.503 272.998 139.696 266.928 136.558 261.887L130.745 252.678V241.567C130.745 230.713 130.694 230.404 129.614 229.375C128.122 227.986 126.99 228.192 120.663 231.176C117.936 232.462 115.467 233.49 115.107 233.49C114.387 233.49 97.771 228.295 84.1902 223.768L73.9017 220.373L73.7474 195.012L73.6445 169.702H102.607H131.62L133.935 173.406ZM84.4474 227.986C91.958 230.404 100.806 233.233 104.15 234.262C107.442 235.291 110.169 236.32 110.169 236.577C110.169 237.76 108.368 238.017 106.825 237.091C106.002 236.577 103.944 235.754 102.349 235.291C99.6229 234.519 99.2113 234.519 96.4335 235.291C94.7873 235.805 92.781 236.217 91.9065 236.217C91.0835 236.217 83.8815 234.159 75.9594 231.639C63.7161 227.729 61.5041 226.854 60.9897 225.826C60.2181 224.282 60.7839 222.636 62.2758 221.864C63.5618 221.196 62.5844 220.939 84.4474 227.986ZM127.145 242.544C127.145 251.444 127.093 252.113 126.27 251.752C125.756 251.547 123.955 250.929 122.257 250.364C116.29 248.409 116.856 249.129 116.856 243.007V237.554L121.64 235.291C124.212 234.056 126.527 233.027 126.784 232.976C126.99 232.976 127.145 237.297 127.145 242.544ZM103.481 239.664C106.31 241.104 107.802 244.088 107.494 247.74C106.825 255.714 97.0508 258.543 92.8839 251.958C91.9065 250.364 91.6493 249.283 91.6493 246.66C91.6493 243.625 91.8036 243.11 93.244 241.464C95.7647 238.583 99.9315 237.863 103.481 239.664ZM88.5628 240.692C88.5628 240.95 88.3056 242.184 87.9455 243.419L87.3796 245.682L82.9041 245.991C75.3421 246.557 69.2205 248.151 62.2243 251.444C60.321 252.318 58.3147 253.039 57.8003 253.039C56.6685 253.039 55.3825 250.878 55.794 249.746C56.6171 247.637 67.9344 242.75 76.0623 241.001C80.1262 240.126 88.5628 239.921 88.5628 240.692ZM113.255 244.293C113.255 246.968 113.152 247.38 112.278 247.38C111.3 247.38 110.683 245.631 110.683 242.699C110.683 241.464 110.889 241.207 111.969 241.207C113.204 241.207 113.255 241.361 113.255 244.293ZM302.563 250.569C302.563 257.411 311.102 260.755 315.629 255.662C316.195 255.096 316.915 254.582 317.327 254.582C317.995 254.582 324.323 258.286 325.609 259.469C326.123 259.932 326.123 260.395 325.455 261.938C323.808 265.848 324.889 269.654 328.387 272.278C329.724 273.255 332.502 273.513 335.692 272.998C336.515 272.895 337.183 273.77 339.035 277.319L341.402 281.743L339.498 283.595C336.823 286.219 336.103 288.842 337.235 291.826C338.264 294.45 340.579 296.662 342.739 297.125L344.231 297.382V302.989V308.596H342.019C337.441 308.596 333.634 313.329 334.714 317.702C334.869 318.525 335.692 320.016 336.566 321.045C337.389 322.074 338.058 323.154 338.058 323.412C338.058 323.669 336.926 325.675 335.486 327.836L332.914 331.797L331.422 330.974C328.078 329.276 323.294 330.459 321.288 333.546C320.619 334.575 320.465 335.655 320.67 338.381L320.928 341.931L317.224 343.886L313.469 345.84L311.359 343.937C308.479 341.314 305.804 341.262 303.334 343.731C302.357 344.709 301.431 346.149 301.277 346.972C301.071 347.795 300.865 348.773 300.711 349.081C300.608 349.544 299.116 349.75 295.618 349.75H290.731V348.052C290.731 345.892 289.033 343.165 287.233 342.497C284.969 341.622 282.089 342.291 280.134 344.143L278.436 345.789L274.475 343.886C270.977 342.239 270.566 341.931 270.874 340.851C272.212 336.529 271.337 333.494 268.148 331.385C266.09 329.996 262.438 329.79 260.174 330.974C259.403 331.385 258.631 331.745 258.528 331.745C258.117 331.745 253.178 323.875 253.178 323.257C253.178 322.897 253.538 322.331 254.001 321.92C255.287 320.839 256.779 317.547 256.779 315.695C256.779 312.094 253.127 308.596 249.474 308.596H247.519V302.989V297.382L249.063 297.022C251.326 296.507 254.001 293.781 254.721 291.209C255.442 288.328 254.773 286.116 252.304 283.492L250.452 281.589L252.355 277.988C255.339 272.381 255.236 272.484 258.014 273.101C262.901 274.181 267.068 270.838 267.068 265.745C267.068 264.407 266.707 262.504 266.296 261.526L265.576 259.726L269.434 257.154C271.594 255.714 273.549 254.582 273.755 254.582C274.012 254.582 275.298 255.353 276.636 256.228C279.568 258.337 283.581 258.594 285.947 256.845C287.696 255.559 289.136 252.833 289.188 250.672C289.188 249.798 289.342 248.923 289.548 248.769C289.702 248.563 292.737 248.409 296.235 248.409H302.563V250.569ZM116.084 252.884C120.714 254.479 125.395 258.749 127.813 263.584C130.282 268.574 130.231 267.7 130.231 319.811C130.231 372.333 130.334 370.173 127.607 373.619C126.99 374.442 125.293 375.626 123.852 376.294L121.229 377.529H99.2628H77.3484L75.1878 375.06C74.0046 373.722 72.1012 371.304 71.0209 369.71L69.0147 366.777V319.039C69.0147 267.854 68.9633 268.986 71.6383 263.481C74.1589 258.183 81.258 252.781 86.4022 252.215C88.7685 251.958 88.82 251.958 89.746 253.862C90.7234 255.816 90.4147 256.588 88.7171 256.639C88.357 256.639 86.5565 257.36 84.756 258.183C79.2517 260.806 75.3935 265.951 74.1589 272.329C73.7474 274.541 73.6445 288.534 73.7474 321.508L73.9017 367.601L75.3421 369.452C78.1714 373.208 77.657 373.105 100.549 373.053C120.251 372.951 121.074 372.899 122.72 371.87C123.698 371.304 124.727 370.173 125.035 369.401C125.447 368.372 125.601 354.843 125.498 319.399L125.344 270.786L123.955 267.854C121.537 262.607 117.062 258.697 111.403 256.794C110.014 256.331 108.78 255.919 108.677 255.816C108.574 255.714 108.934 254.736 109.448 253.604C110.374 251.65 110.529 251.547 112.226 251.855C113.204 252.01 114.953 252.473 116.084 252.884ZM104.304 259.726C109.603 260.395 113.358 261.989 116.496 264.87C120.406 268.42 121.589 271.095 121.692 276.599L121.743 281.075L99.7772 281.229L77.7599 281.332V277.319C77.7599 272.278 78.7887 269.243 81.4637 266.156C85.0647 262.092 88.6142 260.343 94.7359 259.726C99.6229 259.212 100.292 259.212 104.304 259.726ZM114.695 285.91L122 285.962L121.897 321.045L121.743 356.18L99.7772 356.335L77.7599 356.438V321.2V285.962L88.9743 285.859C95.096 285.756 101.783 285.756 103.738 285.807C105.745 285.859 110.632 285.91 114.695 285.91ZM329.364 357.209V370.893L327.924 372.745C327.152 373.774 326.123 375.008 325.712 375.523C324.94 376.449 323.706 376.5 294.846 376.397L264.753 376.243L264.598 360.399C264.495 345.84 264.701 343.32 265.73 345.069C266.347 345.995 273.601 349.647 277.87 351.139C284.455 353.454 288.622 354.123 296.647 354.123C303.849 354.071 306.575 353.66 312.851 351.705C316.864 350.419 324.169 346.818 326.998 344.709C328.13 343.886 329.107 343.268 329.21 343.32C329.313 343.423 329.364 349.647 329.364 357.209ZM121.692 361.89C122.412 363.742 122 366.932 120.869 368.115L119.788 369.298H100.137C81.0008 369.298 80.4349 369.247 79.0974 368.218C77.9142 367.292 77.7599 366.777 77.7599 364.102V361.067H99.5714C118.965 361.067 121.434 361.17 121.692 361.89Z" fill="#BE0201"/>
<path d="M195.254 109.875L156.621 110.029L155.386 111.366C154.203 112.652 154.152 112.858 154.152 121.5C154.152 129.834 154.203 130.503 155.386 132.869C158.113 138.374 163 141.46 169.636 141.82C178.896 142.335 186.046 137.962 190.264 129.217C192.631 124.33 195.614 121.552 198.907 121.038C204.154 120.266 207.806 122.735 210.996 129.268C215.162 137.756 221.541 141.923 230.595 141.923C234.711 141.923 238.311 140.791 241.347 138.476C246.182 134.824 247.52 131.172 247.52 121.038C247.52 113.938 247.005 111.366 245.411 110.492C244.073 109.772 239.34 109.72 195.254 109.875Z" fill="#BE0201"/>
<path d="M185.48 163.786C184.708 164.969 184.708 165.175 185.48 166.358L186.355 167.644L201.067 167.541L215.831 167.387L216.603 165.998C217.323 164.764 217.323 164.558 216.448 163.58C215.522 162.551 214.957 162.5 200.913 162.5H186.303L185.48 163.786Z" fill="#BE0201"/>
<path d="M185.326 172.891C185.017 173.663 185.069 174.435 185.532 175.103C186.149 176.081 186.818 176.132 200.861 176.287L215.574 176.389L216.397 175.155C217.066 174.177 217.117 173.663 216.654 172.84C216.14 171.76 215.728 171.76 200.913 171.76H185.737L185.326 172.891Z" fill="#BE0201"/>
<path d="M185.223 181.585C184.811 182.408 184.811 183.026 185.223 183.9L185.789 185.135H200.964H216.14L216.705 183.9C217.117 183.026 217.117 182.408 216.705 181.585C216.088 180.505 215.882 180.505 200.964 180.505C186.046 180.505 185.84 180.505 185.223 181.585Z" fill="#BE0201"/>
<path d="M283.015 276.702V288.019H272.984H262.953L263.056 300.468L263.21 312.969L273.138 313.123L283.015 313.226V324.029V334.832H295.619H308.222V324.029V313.226H318.253H328.284V300.623V288.019H318.253H308.222V276.702V265.385H295.619H283.015V276.702ZM304.004 280.92L304.106 292.135H313.881H323.655V300.365V308.596H313.881H304.106V319.399V330.202H295.619H287.131V319.399V308.596H277.099H267.068V300.365V292.135H277.099H287.131V281.177C287.131 275.107 287.233 270.066 287.336 269.963C287.439 269.86 291.246 269.757 295.721 269.757H303.849L304.004 280.92Z" fill="#BE0201"/>
<path d="M396.798 6H7.29834L6.00276 246.115C5.86768 271.149 10.4338 295.986 19.4639 319.335L26.7065 338.063C36.0131 362.127 49.8881 384.163 67.5663 402.956L75.3059 411.184C89.2197 425.975 105.305 438.561 123.009 448.509L201.298 492.5L245.04 470.265C255.856 464.766 266.15 458.295 275.793 450.931L300.413 432.13C310.977 424.064 320.71 414.964 329.469 404.966L354.511 376.38C364.327 365.175 372.67 352.666 379.261 339.306C384.915 327.844 389.285 315.722 392.231 303.285C395.266 290.472 396.798 277.349 396.798 264.182V6Z" stroke="#BE0201" stroke-width="12"/>
</svg>
