<svg width="353" height="451" viewBox="0 0 353 451" fill="none" xmlns="http://www.w3.org/2000/svg">
<path d="M0.235859 0.56588C-0.381449 1.49184 0.338744 230.462 0.956051 238.435C1.52192 245.483 3.63105 261.893 4.60845 266.471C9.49547 289.723 16.0801 308.5 25.1339 324.858C41.1325 353.769 62.7383 377.895 94.1695 401.867C114.592 417.454 137.638 431.55 165.263 445.285L176.477 450.84L188.155 445.027C194.585 441.838 202.61 437.62 206.005 435.716C209.4 433.813 213.104 431.755 214.236 431.087C234.247 419.872 257.705 403.616 273.394 390.139C319.795 350.219 345.002 304.281 350.558 249.598C352.461 230.513 352.513 228.558 352.719 113.533L352.924 1.47372e-05H176.734C51.7296 1.47372e-05 0.441628 0.154342 0.235859 0.56588ZM186.714 38.0673V63.2741H176.426H166.137L166.034 53.6029C165.932 42.7486 166.189 13.2721 166.394 12.8606C166.497 12.7063 171.076 12.6548 176.632 12.7577L186.714 12.912V38.0673ZM159.038 43.0572L159.193 70.7332L176.837 70.8875L194.431 70.9904V43.2116C194.431 22.5832 194.585 15.4327 195.048 15.4327C195.717 15.4327 203.536 19.8567 204.873 20.9885C205.696 21.7087 205.748 23.2519 205.748 39.7649C205.748 57.564 205.748 57.8212 206.88 59.0043C208.269 60.4447 210.429 60.5476 211.664 59.1587C212.538 58.1813 212.641 56.7409 212.847 42.9543C213.001 34.6207 213.258 27.7789 213.464 27.7789C214.184 27.7789 219.637 34.1063 222.004 37.6558C226.788 44.8577 230.08 54.1688 230.697 62.6053C230.852 64.8173 231.109 67.5952 231.263 68.7784L231.52 70.939L236.768 71.0933L242.015 71.2476L242.169 74.9515L242.323 78.7068H176.58H110.837V74.9515V71.2476L116.393 71.0933L121.897 70.939V66.9265C121.897 56.3808 125.652 44.4462 131.568 36.2668C133.78 33.2317 138.821 27.7789 139.49 27.7789C139.696 27.7789 139.902 34.5692 139.902 42.8515C139.902 57.3068 139.953 57.9755 140.931 59.0558C142.32 60.5476 145.046 60.5476 146.383 59.1072C147.309 58.0784 147.361 56.9981 147.361 39.7649V21.5543L148.595 20.5769C150.139 19.4452 157.804 15.4327 158.472 15.4327C158.73 15.4327 158.987 26.9043 159.038 43.0572ZM220.718 85.9087C223.495 86.6803 225.913 88.4808 227.251 90.7957C228.382 92.8019 228.382 93.2135 228.28 103.656C228.125 114.099 228.074 114.562 226.788 117.288C224.267 122.638 218.351 127.011 211.252 128.863C207.445 129.84 205.542 129.84 200.964 128.812C192.424 126.908 185.943 121.815 182.084 114.048C180.85 111.578 179.512 109.263 179.101 108.955C178.072 108.08 174.677 108.132 173.596 109.058C173.082 109.469 171.899 111.527 170.87 113.688C168.607 118.42 163.308 123.976 158.678 126.394C153.431 129.12 146.383 130.252 142.525 129.069C133.214 126.137 129.356 123.359 126.424 117.391L124.726 113.945V103.142V92.2875L126.115 90.1269C127.556 87.9664 129.665 86.5774 132.443 85.8572C134.912 85.2914 218.557 85.3428 220.718 85.9087ZM119.839 104.685V111.63H117.267H114.695V104.685V97.7404H117.267H119.839V104.685ZM238.054 104.788L238.208 111.63H235.584H233.012V104.634V97.689L235.482 97.8433L237.899 97.9976L238.054 104.788ZM182.856 123.822C188.978 130.972 196.54 137.557 202.816 141.158L205.233 142.598V148.977C205.233 158.391 203.433 165.541 199.318 172.692C197.26 176.241 191.138 182.054 187.383 184.061C183.782 185.964 177.249 187.404 174.419 186.993C166.6 185.707 163.617 184.215 158.164 178.762C150.91 171.612 147.875 163.689 147.258 150.417L146.949 143.113L151.27 140.335C157.135 136.528 164.234 130.561 167.938 126.239C172.619 120.838 173.545 120.272 177.712 120.632C180.13 120.838 180.438 121.044 182.856 123.822ZM133.471 135.808C134.86 137.351 137.227 139.666 138.719 140.952L141.445 143.215V147.742C141.445 150.777 141.239 152.269 140.879 152.269C138.821 152.269 126.27 140.592 123.852 136.425L122.926 134.882L125.652 132.258L128.327 129.583L129.613 131.281C130.333 132.207 132.031 134.213 133.471 135.808ZM229.463 134.367C229.823 135.036 229.103 136.219 226.222 139.717C222.518 144.141 213.361 152.269 212.075 152.269C211.561 152.269 211.407 151.138 211.407 147.948V143.627L214.802 140.643C216.654 138.997 219.689 135.859 221.541 133.647L224.936 129.583L226.942 131.538C228.074 132.618 229.206 133.904 229.463 134.367ZM109.654 154.944C113.563 161.272 133.574 193.217 138.924 201.654C141.651 206.026 144.789 211.016 145.869 212.714C146.898 214.412 149.007 217.755 150.55 220.173C155.54 228.044 172.928 255.874 174.574 258.601C175.448 260.092 176.323 261.327 176.477 261.327C176.683 261.327 180.49 255.36 184.914 248.055C189.389 240.801 197.466 227.787 202.816 219.144C225.399 182.929 243.507 153.967 244.432 152.629L245.41 151.24H274.218H302.974V191.16C302.974 213.126 302.819 230.976 302.614 230.873C294.897 226.964 290.576 225.214 285.998 224.083C263.672 218.733 242.478 226.243 228.125 244.608C224.936 248.672 217.682 259.629 214.184 265.7C211.407 270.484 209.349 273.879 199.832 289.363C194.996 297.285 189.852 305.67 188.463 307.985L185.943 312.203H170.51H155.077L149.779 303.613C146.846 298.88 143.554 293.633 142.474 291.935C141.445 290.238 137.484 283.859 133.729 277.789C129.922 271.718 126.064 265.442 125.035 263.899C124.006 262.356 122.051 259.166 120.611 256.851C119.222 254.537 115.415 248.466 112.277 243.425L106.464 234.217V223.105C106.464 212.251 106.413 211.942 105.332 210.914C103.841 209.525 102.709 209.73 96.3815 212.714C93.6551 214 91.1859 215.029 90.8258 215.029C90.1056 215.029 73.4897 209.833 59.9089 205.306L49.6205 201.911L49.4661 176.55L49.3633 151.24H78.3253H107.339L109.654 154.944ZM60.1661 209.525C67.6767 211.942 76.5248 214.772 79.8685 215.801C83.1609 216.829 85.8873 217.858 85.8873 218.115C85.8873 219.299 84.0868 219.556 82.5435 218.63C81.7205 218.115 79.6628 217.292 78.0681 216.829C75.3416 216.058 74.9301 216.058 72.1522 216.829C70.506 217.344 68.4998 217.755 67.6253 217.755C66.8022 217.755 59.6003 215.698 51.6782 213.177C39.4349 209.267 37.2229 208.393 36.7085 207.364C35.9368 205.821 36.5027 204.175 37.9945 203.403C39.2806 202.734 38.3032 202.477 60.1661 209.525ZM102.863 224.083C102.863 232.982 102.812 233.651 101.989 233.291C101.474 233.085 99.6738 232.468 97.9762 231.902C92.0089 229.947 92.5748 230.667 92.5748 224.546V219.093L97.3589 216.829C99.931 215.595 102.246 214.566 102.503 214.514C102.709 214.514 102.863 218.836 102.863 224.083ZM79.1998 221.202C82.0291 222.642 83.5209 225.626 83.2123 229.278C82.5435 237.252 72.7695 240.081 68.6027 233.497C67.6253 231.902 67.3681 230.822 67.3681 228.198C67.3681 225.163 67.5224 224.649 68.9628 223.002C71.4835 220.122 75.6503 219.401 79.1998 221.202ZM64.2815 222.231C64.2815 222.488 64.0243 223.723 63.6642 224.957L63.0984 227.221L58.6229 227.529C51.0609 228.095 44.9392 229.69 37.9431 232.982C36.0397 233.857 34.0335 234.577 33.519 234.577C32.3873 234.577 31.1012 232.416 31.5128 231.285C32.3359 229.176 43.6532 224.289 51.781 222.539C55.845 221.665 64.2815 221.459 64.2815 222.231ZM88.9738 225.832C88.9738 228.507 88.8709 228.918 87.9964 228.918C87.019 228.918 86.4017 227.169 86.4017 224.237C86.4017 223.002 86.6075 222.745 87.6878 222.745C88.9224 222.745 88.9738 222.9 88.9738 225.832ZM278.282 232.108C278.282 238.95 286.821 242.293 291.348 237.201C291.914 236.635 292.634 236.12 293.045 236.12C293.714 236.12 300.042 239.824 301.328 241.007C301.842 241.47 301.842 241.933 301.173 243.476C299.527 247.386 300.607 251.193 304.106 253.816C305.443 254.794 308.221 255.051 311.41 254.537C312.233 254.434 312.902 255.308 314.754 258.858L317.12 263.282L315.217 265.134C312.542 267.757 311.822 270.381 312.954 273.364C313.982 275.988 316.297 278.2 318.458 278.663L319.95 278.92V284.527V290.135H317.738C313.159 290.135 309.353 294.867 310.433 299.24C310.587 300.063 311.41 301.555 312.285 302.584C313.108 303.613 313.777 304.693 313.777 304.95C313.777 305.207 312.645 307.214 311.205 309.374L308.632 313.335L307.141 312.512C303.797 310.814 299.013 311.998 297.007 315.084C296.338 316.113 296.183 317.193 296.389 319.92L296.646 323.469L292.943 325.424L289.187 327.379L287.078 325.476C284.197 322.852 281.522 322.801 279.053 325.27C278.076 326.247 277.15 327.688 276.995 328.511C276.79 329.334 276.584 330.311 276.43 330.62C276.327 331.083 274.835 331.289 271.337 331.289H266.45V329.591C266.45 327.43 264.752 324.704 262.952 324.035C260.688 323.161 257.807 323.829 255.853 325.681L254.155 327.327L250.194 325.424C246.696 323.778 246.284 323.469 246.593 322.389C247.931 318.068 247.056 315.033 243.867 312.924C241.809 311.535 238.157 311.329 235.893 312.512C235.121 312.924 234.35 313.284 234.247 313.284C233.835 313.284 228.897 305.413 228.897 304.796C228.897 304.436 229.257 303.87 229.72 303.458C231.006 302.378 232.498 299.086 232.498 297.234C232.498 293.633 228.845 290.135 225.193 290.135H223.238V284.527V278.92L224.782 278.56C227.045 278.046 229.72 275.319 230.44 272.747C231.16 269.866 230.492 267.654 228.022 265.031L226.17 263.127L228.074 259.526C231.057 253.919 230.955 254.022 233.732 254.639C238.619 255.72 242.786 252.376 242.786 247.283C242.786 245.946 242.426 244.042 242.015 243.065L241.294 241.264L245.153 238.692C247.313 237.252 249.268 236.12 249.474 236.12C249.731 236.12 251.017 236.892 252.355 237.766C255.287 239.876 259.299 240.133 261.666 238.384C263.415 237.098 264.855 234.371 264.907 232.211C264.907 231.336 265.061 230.462 265.267 230.307C265.421 230.101 268.456 229.947 271.954 229.947H278.282V232.108ZM91.8032 234.423C96.433 236.017 101.114 240.287 103.532 245.123C106.001 250.113 105.95 249.238 105.95 301.349C105.95 353.872 106.053 351.711 103.326 355.158C102.709 355.981 101.011 357.164 99.5709 357.833L96.9474 359.067H74.9815H53.0671L50.9065 356.598C49.7234 355.261 47.82 352.843 46.7397 351.248L44.7334 348.316V300.577C44.7334 249.392 44.682 250.524 47.357 245.02C49.8777 239.721 56.9767 234.32 62.121 233.754C64.4873 233.497 64.5387 233.497 65.4647 235.4C66.4421 237.355 66.1335 238.126 64.4359 238.178C64.0758 238.178 62.2753 238.898 60.4748 239.721C54.9705 242.345 51.1123 247.489 49.8777 253.868C49.4661 256.08 49.3633 270.072 49.4661 303.047L49.6205 349.139L51.0609 350.991C53.8902 354.746 53.3758 354.643 76.2676 354.592C95.97 354.489 96.7931 354.438 98.4392 353.409C99.4166 352.843 100.445 351.711 100.754 350.939C101.166 349.911 101.32 336.381 101.217 300.938L101.063 252.325L99.6738 249.392C97.256 244.145 92.7806 240.236 87.1219 238.332C85.733 237.869 84.4984 237.458 84.3955 237.355C84.2926 237.252 84.6527 236.275 85.1671 235.143C86.0931 233.188 86.2474 233.085 87.945 233.394C88.9224 233.548 90.6714 234.011 91.8032 234.423ZM80.0229 241.264C85.3214 241.933 89.0767 243.528 92.2147 246.409C96.1243 249.958 97.3075 252.633 97.4104 258.138L97.4618 262.613L75.4959 262.767L53.4786 262.87V258.858C53.4786 253.816 54.5075 250.781 57.1825 247.695C60.7835 243.631 64.333 241.882 70.4546 241.264C75.3416 240.75 76.0104 240.75 80.0229 241.264ZM90.4142 267.449L97.719 267.5L97.6161 302.584L97.4618 337.719L75.4959 337.873L53.4786 337.976V302.738V267.5L64.6931 267.397C70.8147 267.294 77.5022 267.294 79.457 267.346C81.4633 267.397 86.3503 267.449 90.4142 267.449ZM305.083 338.748V352.431L303.643 354.283C302.871 355.312 301.842 356.547 301.431 357.061C300.659 357.987 299.424 358.039 270.565 357.936L240.471 357.781L240.317 341.937C240.214 327.379 240.42 324.858 241.449 326.607C242.066 327.533 249.319 331.186 253.589 332.677C260.174 334.992 264.341 335.661 272.366 335.661C279.568 335.61 282.294 335.198 288.57 333.243C292.582 331.957 299.887 328.356 302.717 326.247C303.848 325.424 304.826 324.807 304.929 324.858C305.032 324.961 305.083 331.186 305.083 338.748ZM97.4104 343.429C98.1306 345.281 97.719 348.47 96.5873 349.653L95.507 350.837H75.856C56.7195 350.837 56.1536 350.785 54.8161 349.756C53.633 348.83 53.4786 348.316 53.4786 345.641V342.606H75.2902C94.6839 342.606 97.1532 342.709 97.4104 343.429Z" fill="#BE0201"/>
<path d="M170.973 91.413L132.34 91.5673L131.105 92.9048C129.922 94.1909 129.871 94.3966 129.871 103.039C129.871 111.373 129.922 112.041 131.105 114.408C133.832 119.912 138.719 122.999 145.355 123.359C154.614 123.873 161.765 119.5 165.983 110.755C168.349 105.868 171.333 103.09 174.625 102.576C179.873 101.804 183.525 104.274 186.714 110.807C190.881 119.295 197.26 123.462 206.314 123.462C210.429 123.462 214.03 122.33 217.065 120.015C221.901 116.363 223.238 112.71 223.238 102.576C223.238 95.4769 222.724 92.9048 221.129 92.0303C219.792 91.3101 215.059 91.2587 170.973 91.413Z" fill="#BE0201"/>
<path d="M161.199 145.325C160.427 146.508 160.427 146.714 161.199 147.897L162.073 149.183L176.786 149.08L191.55 148.926L192.321 147.537C193.042 146.302 193.042 146.096 192.167 145.119C191.241 144.09 190.675 144.039 176.632 144.039H162.022L161.199 145.325Z" fill="#BE0201"/>
<path d="M161.045 154.43C160.736 155.201 160.787 155.973 161.25 156.642C161.868 157.619 162.536 157.671 176.58 157.825L191.293 157.928L192.116 156.693C192.785 155.716 192.836 155.201 192.373 154.378C191.859 153.298 191.447 153.298 176.632 153.298H161.456L161.045 154.43Z" fill="#BE0201"/>
<path d="M160.941 163.124C160.53 163.947 160.53 164.564 160.941 165.438L161.507 166.673H176.683H191.858L192.424 165.438C192.836 164.564 192.836 163.947 192.424 163.124C191.807 162.043 191.601 162.043 176.683 162.043C161.765 162.043 161.559 162.043 160.941 163.124Z" fill="#BE0201"/>
<path d="M258.734 258.24V269.558H248.703H238.671L238.774 282.007L238.929 294.507L248.857 294.662L258.734 294.764V305.567V316.37H271.337H283.941V305.567V294.764H293.972H304.003V282.161V269.558H293.972H283.941V258.24V246.923H271.337H258.734V258.24ZM279.722 262.459L279.825 273.673H289.599H299.373V281.904V290.135H289.599H279.825V300.938V311.74H271.337H262.849V300.938V290.135H252.818H242.787V281.904V273.673H252.818H262.849V262.716C262.849 256.646 262.952 251.604 263.055 251.501C263.158 251.399 266.965 251.296 271.44 251.296H279.568L279.722 262.459Z" fill="#BE0201"/>
</svg>
